<?xml version="1.0" standalone="no"?>
<!DOCTYPE svg PUBLIC "-//W3C//DTD SVG 20010904//EN"
 "http://www.w3.org/TR/2001/REC-SVG-20010904/DTD/svg10.dtd">
<svg version="1.0" xmlns="http://www.w3.org/2000/svg"
 width="267.000000pt" height="189.000000pt" viewBox="0 0 267.000000 189.000000"
 preserveAspectRatio="xMidYMid meet">

<g transform="translate(0.000000,189.000000) scale(0.100000,-0.100000)"
fill="#000000" stroke="none">
<path d="M1152 1277 c-6 -7 -15 -25 -21 -40 -13 -35 -22 -34 -49 3 -13 17 -30
30 -40 30 -20 0 -102 -85 -102 -106 0 -25 -37 -16 -44 11 -7 27 -33 34 -42 10
-4 -8 -13 -15 -20 -15 -8 0 -25 -9 -37 -21 -21 -19 -22 -19 -25 -2 -6 27 -19
37 -39 28 -10 -5 -34 -9 -53 -9 -28 -1 -36 -5 -38 -22 -3 -24 -20 -29 -128
-40 -46 -5 -71 -13 -84 -26 -17 -19 -19 -19 -44 -3 -18 12 -34 15 -53 9 -16
-4 -46 -6 -68 -5 -52 3 -72 -18 -76 -79 -3 -38 0 -45 15 -43 16 1 16 -1 -3
-21 -21 -23 -19 -36 6 -36 7 0 13 10 13 23 1 21 1 21 12 2 15 -26 39 -44 59
-45 9 0 23 -9 30 -20 15 -22 42 -28 71 -16 11 5 18 1 23 -13 9 -29 33 -39 88
-39 30 1 53 -5 65 -15 10 -10 23 -17 29 -17 6 0 13 -5 15 -12 7 -19 38 -1 38
22 0 24 -6 24 57 1 30 -11 67 -35 86 -54 22 -24 45 -37 72 -42 22 -3 55 -13
73 -21 39 -17 94 -18 109 -3 8 8 19 6 42 -5 38 -20 77 -12 97 20 15 21 18 22
38 9 12 -8 53 -16 91 -18 39 -2 78 -7 87 -11 10 -5 25 -6 32 -3 9 4 17 -2 21
-13 10 -30 46 -36 66 -11 16 20 21 20 70 10 51 -11 54 -11 75 15 13 14 31 26
42 26 10 0 29 10 42 22 16 15 25 18 28 10 6 -18 25 -15 45 8 9 11 27 20 39 20
12 0 29 7 38 15 15 14 18 14 30 0 21 -25 77 -19 108 12 17 17 35 26 50 24 14
-1 29 5 37 15 11 15 15 16 28 5 26 -21 70 -10 85 22 12 25 18 28 46 23 21 -4
39 -1 54 10 19 13 26 14 40 2 15 -12 16 -11 3 4 -12 16 -10 19 15 29 16 7 35
11 41 10 22 -3 54 19 46 32 -4 7 -6 24 -4 39 3 35 -15 68 -39 68 -10 0 -22 5
-26 11 -4 7 -24 9 -50 6 -26 -3 -54 1 -70 9 -14 8 -33 14 -40 14 -8 0 -19 11
-24 25 -14 37 -61 74 -93 75 -18 0 -37 -9 -49 -23 l-21 -24 -34 33 c-32 31
-37 33 -98 31 -36 -2 -70 -8 -77 -15 -7 -7 -28 -12 -48 -12 -29 0 -41 6 -58
30 -18 24 -30 30 -58 30 -21 0 -47 9 -61 20 -41 32 -90 26 -129 -15 -36 -38
-55 -43 -75 -19 -8 10 -23 14 -41 12 -16 -3 -31 -1 -34 4 -10 15 -24 8 -34
-17 -5 -14 -14 -25 -19 -25 -12 0 -28 22 -33 45 -2 14 -10 19 -25 17 -14 -2
-26 4 -33 17 -12 24 -42 28 -58 8z"/>
<path d="M535 750 c3 -5 8 -10 11 -10 2 0 4 5 4 10 0 6 -5 10 -11 10 -5 0 -7
-4 -4 -10z"/>
</g>
</svg>
